<?xml version="1.0"?>
<svg xmlns="http://www.w3.org/2000/svg" xmlns:xlink="http://www.w3.org/1999/xlink" xmlns:svgjs="http://svgjs.com/svgjs" version="1.1" width="512" height="512" x="0" y="0" viewBox="0 0 512 512" style="enable-background:new 0 0 512 512" xml:space="preserve" class=""><g>
<path xmlns="http://www.w3.org/2000/svg" style="" d="M63,0h386c8.284,0,15,6.716,15,15v482c0,8.284-6.716,15-15,15H63  c-8.284,0-15-6.716-15-15V15C48,6.716,54.716,0,63,0L63,0z M150.394,262.786c-5.857-5.857-5.857-15.354,0-21.211  c5.868-5.868,15.325-5.886,21.303,0.092l10.167-10.167H138v49h49v-11.713l-4.697,4.697c-5.857,5.857-15.354,5.857-21.211,0  L150.394,262.786L150.394,262.786z M209.725,203.64c-2.257-1.358-4.899-2.14-7.725-2.14h-79c-8.284,0-15,6.716-15,15v79  c0,8.284,6.716,15,15,15h79c8.284,0,15-6.716,15-15v-56.713l18.681-18.682c5.857-5.857,5.857-15.354,0-21.211  c-5.857-5.857-15.354-5.857-21.211,0L209.725,203.64L209.725,203.64z M277,442.501h82.349c8.284,0,15-6.716,15-15  c0-8.284-6.716-15-15-15H277c-8.284,0-15,6.716-15,15C262,435.785,268.716,442.501,277,442.501L277,442.501z M277,382.499h112  c8.284,0,15-6.716,15-15c0-8.284-6.716-15-15-15H277c-8.284,0-15,6.716-15,15C262,375.784,268.716,382.499,277,382.499L277,382.499z   M277,301h82.349c8.284,0,15-6.716,15-15c0-8.284-6.716-15-15-15H277c-8.284,0-15,6.716-15,15C262,294.285,268.716,301,277,301  L277,301z M277,240.999h112c8.284,0,15-6.716,15-15c0-8.284-6.716-15-15-15H277c-8.284,0-15,6.716-15,15  C262,234.283,268.716,240.999,277,240.999L277,240.999z M277,159.5h82.349c8.284,0,15-6.716,15-15c0-8.284-6.716-15-15-15H277  c-8.284,0-15,6.716-15,15C262,152.785,268.716,159.5,277,159.5L277,159.5z M277,99.499h112c8.284,0,15-6.716,15-15  c0-8.284-6.716-15-15-15H277c-8.284,0-15,6.716-15,15C262,92.783,268.716,99.499,277,99.499L277,99.499z M123,343  c-8.284,0-15,6.716-15,15v79c0,8.284,6.716,15,15,15h79c8.284,0,15-6.716,15-15v-79c0-8.284-6.716-15-15-15H123L123,343z M187,373  h-49v49h49V373L187,373z M123,60c-8.284,0-15,6.716-15,15v79c0,8.284,6.716,15,15,15h79c8.284,0,15-6.716,15-15V75  c0-8.284-6.716-15-15-15H123L123,60z M187,90h-49v49h49V90L187,90z M434,30H78V482h356V30z" fill="#ffffff" data-original="#000000"/>















</g></svg>
