<?xml version="1.0"?>
<svg xmlns="http://www.w3.org/2000/svg" xmlns:xlink="http://www.w3.org/1999/xlink" xmlns:svgjs="http://svgjs.com/svgjs" version="1.1" width="512" height="512" x="0" y="0" viewBox="0 0 520 520" style="enable-background:new 0 0 512 512" xml:space="preserve" class=""><g>
<path xmlns="http://www.w3.org/2000/svg" id="XMLID_1212_" d="M505,245.029h-70.237c15.112-40.204,6.521-87.364-25.774-119.659  c-21.315-21.314-49.654-33.053-79.798-33.053c-25.383,0-49.484,8.323-69.191,23.678c-19.707-15.355-43.809-23.678-69.191-23.678  c-30.143,0-58.483,11.739-79.797,33.053c-21.315,21.315-33.054,49.654-33.054,79.798c0,13.836,2.48,27.29,7.218,39.861H15  c-8.284,0-15,6.716-15,15s6.716,15,15,15h87.17c2.734,3.454,5.679,6.774,8.842,9.937l138.382,138.382  c5.78,5.78,15.433,5.78,21.213,0l138.383-138.382c3.174-3.174,6.112-6.496,8.828-9.937H505c8.284,0,15-6.716,15-15  S513.284,245.029,505,245.029z M107.958,205.168c0-22.13,8.618-42.936,24.267-58.584c16.152-16.152,37.368-24.228,58.584-24.228  c21.217,0,42.433,8.076,58.585,24.228c2.813,2.813,6.628,4.394,10.606,4.394c3.979,0,7.794-1.581,10.606-4.394  c15.648-15.648,36.454-24.267,58.585-24.267c22.13,0,42.936,8.618,58.585,24.267c26.619,26.619,31.281,66.985,14.03,98.446H347.5  l-25.5-34c-3.119-4.159-8.167-6.404-13.347-5.939c-5.178,0.467-9.745,3.582-12.069,8.231l-27.78,55.56l-45.941-76.569  c-2.816-4.695-7.97-7.497-13.438-7.271c-5.471,0.21-10.392,3.384-12.841,8.281l-25.854,51.708h-52.575  C111.506,232.953,107.958,219.336,107.958,205.168z M260,391.528L143.5,275.029H180c5.682,0,10.875-3.21,13.417-8.292l17.78-35.56  l45.941,76.569c2.717,4.529,7.606,7.283,12.86,7.283c0.191,0,0.385-0.003,0.577-0.011c5.471-0.21,10.393-3.384,12.841-8.281  l29.146-58.292L328,269.029c2.833,3.777,7.278,6,12,6h36.5L260,391.528z" fill="#ffffff" data-original="#000000" style=""/>















</g></svg>
